HIERARCHY
ROOT Hips
{
	OFFSET 0.00000 0.00000 0.00000
	CHANNELS 6 Xposition Yposition Zposition Zrotation Yrotation Xrotation 
	JOINT LHipJoint
	{
		OFFSET 0 0 0
		CHANNELS 3 Zrotation Yrotation Xrotation
		JOINT LeftUpLeg
		{
			OFFSET 1.75344 -1.53157 0.77399
			CHANNELS 3 Zrotation Yrotation Xrotation
			JOINT LeftLeg
			{
				OFFSET 2.25415 -6.19323 0.00000
				CHANNELS 3 Zrotation Yrotation Xrotation
				JOINT LeftFoot
				{
					OFFSET 2.30342 -6.32861 0.00000
					CHANNELS 3 Zrotation Yrotation Xrotation
					JOINT LeftToeBase
					{
						OFFSET 0.10958 -0.30108 1.49206
						CHANNELS 3 Zrotation Yrotation Xrotation
						End Site
						{
							OFFSET 0.00000 -0.00000 0.77783
						}
					}
				}
			}
		}
	}
	JOINT RHipJoint
	{
		OFFSET 0 0 0
		CHANNELS 3 Zrotation Yrotation Xrotation
		JOINT RightUpLeg
		{
			OFFSET -1.81912 -1.53156 0.77399
			CHANNELS 3 Zrotation Yrotation Xrotation
			JOINT RightLeg
			{
				OFFSET -2.22882 -6.12365 0.00000
				CHANNELS 3 Zrotation Yrotation Xrotation
				JOINT RightFoot
				{
					OFFSET -2.21943 -6.09785 0.00000
					CHANNELS 3 Zrotation Yrotation Xrotation
					JOINT RightToeBase
					{
						OFFSET -0.18931 -0.52012 1.59379
						CHANNELS 3 Zrotation Yrotation Xrotation
						End Site
						{
							OFFSET -0.00000 -0.00000 0.84686
						}
					}
				}
			}
		}
	}
	JOINT LowerBack
	{
		OFFSET 0 0 0
		CHANNELS 3 Zrotation Yrotation Xrotation
		JOINT Spine
		{
			OFFSET -0.00200 1.66634 -0.14248
			CHANNELS 3 Zrotation Yrotation Xrotation
			JOINT Spine1
			{
				OFFSET -0.00875 1.64542 0.09514
				CHANNELS 3 Zrotation Yrotation Xrotation
				JOINT Neck
				{
					OFFSET 0 0 0
					CHANNELS 3 Zrotation Yrotation Xrotation
					JOINT Neck1
					{
						OFFSET 0.02257 1.59605 0.00839
						CHANNELS 3 Zrotation Yrotation Xrotation
						JOINT Head
						{
							OFFSET -0.10214 1.57530 -0.23335
							CHANNELS 3 Zrotation Yrotation Xrotation
							End Site
							{
								OFFSET -0.03588 1.60717 -0.08062
							}
						}
					}
				}
				JOINT LeftShoulder
				{
					OFFSET 0 0 0
					CHANNELS 3 Zrotation Yrotation Xrotation
					JOINT LeftArm
					{
						OFFSET 2.54983 1.10186 0.40078
						CHANNELS 3 Zrotation Yrotation Xrotation
						JOINT LeftForeArm
						{
							OFFSET 4.28840 -0.00000 0.00000
							CHANNELS 3 Zrotation Yrotation Xrotation
							JOINT LeftHand
							{
								OFFSET 3.06552 -0.00000 -0.00000
								CHANNELS 3 Zrotation Yrotation Xrotation
								JOINT LeftFingerBase
								{
									OFFSET 0 0 0
									CHANNELS 3 Zrotation Yrotation Xrotation
									JOINT LeftHandIndex1
									{
										OFFSET 0.75304 -0.00000 0.00000
										CHANNELS 3 Zrotation Yrotation Xrotation
										End Site
										{
											OFFSET 0.60712 -0.00000 0.00000
										}
									}
								}
								JOINT LThumb
								{
									OFFSET 0 0 0
									CHANNELS 3 Zrotation Yrotation Xrotation
									End Site
									{
										OFFSET 0.61639 -0.00000 0.61639
									}
								}
							}
						}
					}
				}
				JOINT RightShoulder
				{
					OFFSET 0 0 0
					CHANNELS 3 Zrotation Yrotation Xrotation
					JOINT RightArm
					{
						OFFSET -2.60909 1.35448 0.21802
						CHANNELS 3 Zrotation Yrotation Xrotation
						JOINT RightForeArm
						{
							OFFSET -4.52172 -0.00000 -0.00000
							CHANNELS 3 Zrotation Yrotation Xrotation
							JOINT RightHand
							{
								OFFSET -2.89140 -0.00000 0.00000
								CHANNELS 3 Zrotation Yrotation Xrotation
								JOINT RightFingerBase
								{
									OFFSET 0 0 0
									CHANNELS 3 Zrotation Yrotation Xrotation
									JOINT RightHandIndex1
									{
										OFFSET -0.68054 -0.00000 0.00000
										CHANNELS 3 Zrotation Yrotation Xrotation
										End Site
										{
											OFFSET -0.54867 -0.00000 0.00000
										}
									}
								}
								JOINT RThumb
								{
									OFFSET 0 0 0
									CHANNELS 3 Zrotation Yrotation Xrotation
									End Site
									{
										OFFSET -0.55705 -0.00000 0.55705
									}
								}
							}
						}
					}
				}
			}
		}
	}
}
MOTION
Frames: 14
Frame Time: .0083333
9.8914 15.1357 -37.9479 365.1470 16.6355 -2.1645 0.0000 0.0000 0.0000 -29.5536 -8.2426 -8.4777 2.6151 10.0442 29.1200 0.7764 -10.3378 -16.2581 2.3459 -9.5521 -27.5381 0.0000 0.0000 0.0000 10.9402 -1.6594 -9.5437 -7.8807 -16.0308 52.1318 -0.5891 -9.5895 -21.0032 -0.0057 0.4876 -1.3399 4.8023 2.5299 7.1464 4.4845 3.8971 1.0271 1.5798 1.9141 -2.9374 -14.2575 -14.0206 9.6131 8.7798 -20.1155 3.5103 4.6246 -10.2897 1.8460 -0.0000 -0.0000 0.0000 -68.8535 16.4834 46.6503 61.1566 -56.6103 -35.3051 -0.0000 -0.0000 3.1102 -0.9791 -28.9005 0.4732 -7.1250 0.0000 -0.0000 -18.3477 2.3045 18.5864 -0.0000 -0.0000 0.0000 66.3366 9.7641 46.1838 -20.9633 31.7854 -6.0306 0.0000 0.0000 34.0199 -23.0349 -53.4221 18.8525 7.1250 -0.0000 -0.0000 -8.9310 5.3667 -171.8416
9.8974 15.1089 -37.9649 365.2760 16.6322 -2.5042 0.0000 0.0000 0.0000 -29.6942 -7.7942 -8.4250 2.6799 10.1580 29.4898 0.7947 -10.9200 -16.5578 2.1938 -9.2586 -26.6075 0.0000 0.0000 0.0000 10.8592 -1.8295 -9.4972 -7.9817 -16.1058 52.4968 -0.6245 -9.7112 -21.4608 -0.0299 1.1168 -3.0703 4.8228 2.5594 7.5385 4.3723 3.9579 1.1301 1.4302 1.9419 -3.0395 -14.2469 -13.9851 9.8335 8.8645 -20.0902 3.3743 4.6731 -10.2808 1.7760 -0.0000 0.0000 0.0000 -68.3808 15.6127 46.7768 61.1304 -56.6037 -35.2832 -0.0000 -0.0000 2.8151 -0.8245 -28.8840 0.3983 -7.1250 0.0000 -0.0000 -18.2613 2.3104 18.4867 -0.0000 0.0000 0.0000 66.5468 9.3747 46.0023 -20.7741 31.5637 -5.9313 0.0000 0.0000 34.0558 -23.4719 -52.9651 19.1179 7.1250 -0.0000 -0.0000 -8.6672 5.6592 -172.1372
9.9085 15.0865 -37.9795 365.5170 17.1980 -2.2998 0.0000 0.0000 0.0000 -29.9529 -7.9845 -8.7123 2.7334 10.2505 29.7917 0.7622 -11.7020 -16.4742 1.9916 -8.8486 -25.3229 0.0000 0.0000 0.0000 10.6401 -2.3272 -9.9022 -8.0769 -16.1755 52.8393 -0.7111 -9.7171 -22.2759 -0.0193 0.8979 -2.4680 4.7708 2.3617 7.2500 4.2365 3.6649 1.1072 1.3589 1.7986 -2.8984 -14.3304 -13.9318 9.8123 8.7751 -20.0268 3.5016 4.6547 -10.2506 1.8093 -0.0000 0.0000 0.0000 -67.9573 14.8265 46.7789 61.2977 -56.6459 -35.4230 -0.0000 -0.0000 2.4298 -1.1868 -28.7572 0.5710 -7.1250 0.0000 -0.0000 -18.4668 2.4533 18.6691 -0.0000 0.0000 0.0000 66.6492 9.2162 46.2033 -20.4899 31.2281 -5.7832 0.0000 0.0000 34.1645 -23.9952 -52.8748 19.5402 7.1250 -0.0000 -0.0000 -8.4448 5.5905 -172.3324
9.9070 15.0579 -37.9995 365.7640 16.7211 -2.5686 0.0000 0.0000 0.0000 -30.1673 -7.1659 -8.8486 2.7724 10.3172 30.0101 0.8021 -11.8481 -16.8606 2.1430 -9.1577 -26.2900 0.0000 0.0000 0.0000 10.4327 -2.0135 -9.8673 -8.1759 -16.2471 53.1936 -0.7740 -9.7620 -22.8821 -0.0077 0.5680 -1.5609 4.5657 2.4491 7.6746 4.1785 3.7878 1.2185 1.3839 1.8596 -3.0279 -14.4616 -13.8844 9.5793 8.5104 -19.9529 3.8622 4.5659 -10.2132 1.9312 0.0000 0.0000 0.0000 -67.6834 14.0578 46.5652 61.2085 -56.6234 -35.3484 -0.0000 -0.0000 2.1214 -1.3565 -28.7920 0.6534 -7.1250 0.0000 -0.0000 -18.5612 2.4306 18.7839 0.0000 0.0000 0.0000 66.6293 8.8207 46.3279 -20.4702 31.2047 -5.7730 0.0000 0.0000 33.7789 -23.8167 -53.3267 19.4953 7.1250 -0.0000 -0.0000 -8.6097 5.2299 -172.1195
9.9184 15.0440 -38.0079 365.9530 17.4100 -2.3699 0.0000 0.0000 0.0000 -30.3828 -7.4440 -9.0056 2.7952 10.3559 30.1372 0.7968 -12.1461 -16.8980 2.1841 -9.2394 -26.5471 0.0000 0.0000 0.0000 10.2650 -2.6868 -10.1998 -8.2480 -16.2987 53.4512 -0.8455 -9.9084 -23.6329 -0.0023 0.3122 -0.8578 4.5626 2.2255 7.3093 4.0467 3.4611 1.1722 1.2955 1.6993 -2.8658 -14.4777 -13.8175 9.5283 8.4247 -19.8610 3.9955 4.5399 -10.1679 1.9617 -0.0000 -0.0000 0.0000 -67.3261 13.1727 46.5129 60.6641 -56.4843 -34.8942 -0.0000 -0.0000 2.2438 -0.6708 -28.8941 0.3242 -7.1250 0.0000 -0.0000 -18.1749 2.2909 18.3960 -0.0000 -0.0000 0.0000 66.6932 8.1902 46.1779 -20.4289 31.1556 -5.7516 0.0000 0.0000 33.5043 -24.3565 -52.8575 19.8429 7.1250 -0.0000 -0.0000 -8.3002 5.5022 -172.4525
9.9220 15.0293 -38.0214 366.1600 17.2668 -2.4450 0.0000 0.0000 0.0000 -30.5618 -7.0279 -9.1370 2.8135 10.3868 30.2385 0.8034 -12.3964 -17.0256 2.2242 -9.3183 -26.7963 0.0000 0.0000 0.0000 10.1238 -2.5973 -10.2718 -8.3207 -16.3502 53.7099 -0.8848 -10.1222 -24.1502 -0.0017 0.2628 -0.7221 4.4578 2.2597 7.3813 3.9491 3.4958 1.2380 1.2478 1.7178 -2.8374 -14.6565 -13.6481 9.7640 8.6927 -19.6811 3.7273 4.6793 -10.0843 1.8677 0.0000 0.0000 0.0000 -66.9964 12.3383 46.4940 60.1249 -56.3431 -34.4451 -0.0000 -0.0000 2.7561 0.2220 -28.7167 -0.1067 -7.1250 0.0000 -0.0000 -17.6747 2.4000 17.7984 0.0000 0.0000 0.0000 66.8628 8.0108 46.0166 -20.0241 30.6714 -5.5437 0.0000 0.0000 33.2880 -24.9633 -51.0206 19.8946 7.1250 -0.0000 -0.0000 -7.6596 7.0079 -173.2701
9.9229 15.0140 -38.0317 366.3590 17.2353 -2.4598 0.0000 0.0000 0.0000 -30.7112 -6.6104 -9.3252 2.8261 10.4081 30.3086 0.7906 -12.8717 -17.0610 2.2173 -9.3048 -26.7536 0.0000 0.0000 0.0000 10.0220 -2.4871 -10.3077 -8.3829 -16.3938 53.9306 -0.9588 -10.1043 -24.7433 -0.0001 -0.0576 0.1581 4.3526 2.2519 7.3778 3.8541 3.4712 1.2728 1.2111 1.7069 -2.7997 -14.8983 -13.5296 10.1377 9.0054 -19.5937 3.4577 4.8443 -10.0512 1.7729 -0.0000 -0.0000 0.0000 -66.6654 11.4975 46.4908 59.6953 -56.2282 -34.0877 -0.0000 -0.0000 3.0867 0.5398 -28.2407 -0.2554 -7.1250 0.0000 -0.0000 -17.5003 2.8315 17.4613 -0.0000 -0.0000 0.0000 66.8704 7.2579 45.6719 -20.0745 30.7320 -5.5694 0.0000 0.0000 33.5807 -26.1853 -51.7404 21.1127 7.1250 -0.0000 -0.0000 -7.3295 5.9799 -173.4186
9.9237 14.9960 -38.0440 366.6270 17.1943 -2.4739 0.0000 0.0000 0.0000 -30.9399 -6.2570 -9.4447 2.8355 10.4239 30.3608 0.7519 -13.4809 -16.9350 1.9070 -8.6696 -24.7673 0.0000 0.0000 0.0000 9.8191 -2.4178 -10.3419 -8.4498 -16.4403 54.1670 -1.0226 -10.1052 -25.2542 -0.0013 -0.2305 0.6332 4.2398 2.2717 7.4274 3.7059 3.4848 1.3029 1.1178 1.7140 -2.7932 -14.7408 -13.4752 9.7590 8.6470 -19.4622 3.8790 4.6840 -9.9784 1.8921 0.0000 -0.0000 0.0000 -66.2828 10.5456 46.5612 59.1019 -56.0658 -33.5949 -0.0000 -0.0000 3.1896 1.0508 -27.8737 -0.4913 -7.1250 0.0000 -0.0000 -17.2131 3.1454 17.0427 0.0000 -0.0000 0.0000 67.0856 7.0507 45.0489 -19.8578 30.4706 -5.4591 0.0000 0.0000 34.1614 -23.9953 -53.4282 19.6714 7.1250 -0.0000 -0.0000 -8.5635 5.0864 -172.1392
9.9255 14.9780 -38.0578 366.9670 17.1745 -2.4368 0.0000 0.0000 0.0000 -31.2481 -5.8847 -9.6140 2.8520 10.4516 30.4517 0.7238 -13.9505 -16.8646 1.7685 -8.3663 -23.8322 0.0000 0.0000 0.0000 9.4977 -2.4952 -10.4324 -8.5036 -16.4774 54.3569 -1.0569 -10.2957 -25.6820 -0.0001 0.0690 -0.1896 4.0862 2.2896 7.4212 3.5270 3.4890 1.3083 1.0180 1.7165 -2.7818 -14.6374 -13.4345 9.7655 8.4821 -19.3977 4.0105 4.6240 -9.9456 1.8974 -0.0000 -0.0000 0.0000 -65.9911 9.5693 46.5067 57.8798 -55.7180 -32.5830 -0.0000 -0.0000 3.5278 1.8975 -28.3007 -0.8999 -7.1250 0.0000 -0.0000 -16.7262 2.6739 16.6638 -0.0000 -0.0000 0.0000 67.1754 6.1409 44.5523 -20.0438 30.6951 -5.5537 0.0000 0.0000 34.1859 -23.4917 -53.4481 19.2468 7.1250 -0.0000 -0.0000 -8.7611 5.2135 -171.9748
9.9273 14.9639 -38.0727 367.2090 17.0805 -2.4153 0.0000 0.0000 0.0000 -31.4317 -5.3255 -9.9307 2.8806 10.4992 30.6091 0.6817 -14.6082 -16.7634 1.6403 -8.0729 -22.9356 0.0000 0.0000 0.0000 9.2874 -2.4702 -10.5066 -8.5400 -16.5024 54.4851 -1.0952 -10.5055 -26.1512 -0.0019 0.2782 -0.7643 4.0245 2.3040 7.3632 3.4275 3.4932 1.3549 0.9528 1.7202 -2.6984 -14.7190 -13.4028 9.6602 8.3426 -19.3519 4.2099 4.5806 -9.9238 1.9625 0.0000 0.0000 0.0000 -65.8750 8.5239 46.3151 56.6427 -55.3468 -31.5631 -0.0000 -0.0000 3.6398 2.3167 -28.8271 -1.1175 -7.1250 0.0000 -0.0000 -16.4870 2.1364 16.5700 0.0000 0.0000 0.0000 67.1331 5.8438 44.6284 -19.8478 30.4585 -5.4540 0.0000 0.0000 33.4819 -24.1621 -53.1953 19.7585 7.1250 -0.0000 -0.0000 -8.4485 5.2504 -172.2738
9.9291 14.9525 -38.0862 367.3050 17.4043 -2.4973 0.0000 0.0000 0.0000 -31.4985 -5.1634 -10.0044 2.9133 10.5534 30.7881 0.6260 -15.2710 -16.5751 1.4610 -7.6394 -21.6241 0.0000 0.0000 0.0000 9.2661 -2.6774 -10.3877 -8.5497 -16.5090 54.5193 -1.1727 -10.6667 -26.8651 -0.0000 -0.0256 0.0704 4.1495 2.1363 7.2755 3.3715 3.2676 1.4505 0.8522 1.6102 -2.5424 -14.7330 -13.3023 9.3073 8.0725 -19.1748 4.5237 4.4760 -9.8320 2.0663 -0.0000 -0.0000 0.0000 -65.6923 7.4956 46.1240 55.6518 -55.0353 -30.7494 -0.0000 -0.0000 3.4883 4.5391 -32.1244 -2.4174 -7.1250 0.0000 -0.0000 -15.2991 -1.2354 16.2096 -0.0000 -0.0000 0.0000 67.0368 5.7397 44.5881 -19.5702 30.1211 -5.3140 0.0000 0.0000 33.4087 -24.2433 -53.3482 19.8641 7.1250 -0.0000 -0.0000 -8.4505 5.0877 -172.2456
9.9248 14.9376 -38.1005 367.4120 17.3297 -2.6038 0.0000 0.0000 0.0000 -31.5620 -4.9258 -10.0933 2.9453 10.6059 30.9620 0.6218 -15.4456 -16.6154 1.4595 -7.6357 -21.6128 0.0000 0.0000 0.0000 9.2613 -2.4231 -10.2312 -8.5473 -16.5074 54.5110 -1.2555 -10.7824 -27.5616 -0.0049 -0.4536 1.2463 4.2777 2.1184 7.3706 3.2236 3.2538 1.4660 0.6261 1.6013 -2.5636 -14.7309 -13.1863 9.6071 8.2356 -19.0587 4.3588 4.5601 -9.7787 1.9726 0.0000 -0.0000 0.0000 -65.2397 6.6363 46.1492 54.8042 -54.7585 -30.0560 -0.0000 -0.0000 3.2408 5.4017 -32.9509 -2.9443 -7.1250 0.0000 -0.0000 -14.8561 -2.1238 15.9339 0.0000 -0.0000 0.0000 67.2404 5.2696 43.8973 -19.3996 29.9121 -5.2286 0.0000 0.0000 34.1693 -23.2599 -53.0483 18.9577 7.1250 -0.0000 -0.0000 -8.7674 5.6434 -172.0414
9.9196 14.9215 -38.1132 367.6140 17.1969 -2.6339 0.0000 0.0000 0.0000 -31.7164 -4.6576 -10.2317 2.9753 10.6550 31.1248 0.6102 -15.6641 -16.6148 1.4118 -7.5151 -21.2507 0.0000 0.0000 0.0000 9.1337 -2.2299 -10.1601 -8.5370 -16.5004 54.4747 -1.2903 -11.0676 -28.0398 -0.0021 -0.2967 0.8151 4.3566 2.1485 7.4753 3.0082 3.3021 1.4084 0.3500 1.6212 -2.6632 -14.6277 -13.1014 9.8153 8.2566 -18.9629 4.3520 4.5763 -9.7339 1.9200 -0.0000 -0.0000 0.0000 -64.8245 5.8360 46.2084 54.0577 -54.5065 -29.4473 -0.0000 -0.0000 2.8688 5.0146 -32.8166 -2.7226 -7.1250 0.0000 -0.0000 -15.0628 -1.9522 16.1274 -0.0000 -0.0000 0.0000 67.5790 4.6157 43.0730 -19.2512 29.7296 -5.1548 0.0000 0.0000 34.6205 -23.0868 -52.8437 18.7641 7.1250 -0.0000 -0.0000 -8.7928 5.8797 -172.0579
9.9154 14.9074 -38.1233 367.8300 17.1546 -2.6834 0.0000 0.0000 0.0000 -31.8905 -4.3472 -10.3275 3.0012 10.6969 31.2644 0.5979 -15.9738 -16.6516 1.3776 -7.4272 -20.9874 0.0000 0.0000 0.0000 8.9693 -2.2226 -10.0686 -8.5231 -16.4909 54.4258 -1.3130 -11.3884 -28.4598 -0.0005 -0.1421 0.3904 4.3616 2.1361 7.5481 2.8628 3.2875 1.3715 0.1946 1.6114 -2.7334 -14.5685 -13.0220 9.7658 8.0755 -18.8462 4.5679 4.5121 -9.6762 1.9569 0.0000 -0.0000 0.0000 -64.6766 5.0330 46.0755 52.8761 -54.0916 -28.4877 -0.0000 -0.0000 3.0070 5.4336 -33.0482 -2.9695 -7.1250 0.0000 -0.0000 -14.8428 -2.2212 15.9434 0.0000 -0.0000 0.0000 67.6864 4.0136 42.7704 -19.1103 29.5555 -5.0851 0.0000 0.0000 34.3802 -23.7797 -53.5670 19.5198 7.1250 -0.0000 -0.0000 -8.6756 5.0220 -172.0232
